#!OML:ASF E:/inclinewalkrobotboard/Project1/Captureday1/Session1/subject1.ASF
:FULLY-SPECIFIED
:DEGREES
226
root 0 0 0 1.845201331768613 -3.8949266826156004 2.1764491695409336
lowerback 11.985860062514321 1.1655217115997378 -0.09626064152394886
upperback -4.457559360663313 1.46530788708257 -0.8558072626254111
thorax -11.566665698806272 0.678577581266554 -1.1358448294525816
lowerneck -6.238909011662219 1.752573078146795 4.833420358160016
upperneck 18.176969117747216 3.2859123818599887 -8.488799431792794
head 6.697770159728305 1.2226278503371768 -3.2932785244354346
rclavicle -2.1499814987462705E-15 -1.102109888133864E-15
rhumerus 23.26326504395928 17.847052880858186 -48.50293377266715
rradius 74.90342504489305
rwrist 25.811449114860153
rhand -34.8191308532375 -58.10368015777274
rfingers 7.12502
rthumb -7.9619064382152605 -88.01422835438927
lclavicle -1.1146894397259825E-15 -8.414091740063649E-16
lhumerus 22.435060574346693 -14.544976271663474 45.76599122097333
lradius 71.34009660481323
lwrist -21.38629318198275
lhand -45.272346252571225 -69.02479627059537
lfingers 7.125020000000012
lthumb -18.04650306331991 -39.776703667632646
rfemur -24.519321739811993 -0.7843635342647413 18.602781199838915
rtibia 44.913428725723435
rfoot -33.02493079151547 -17.87547913199646
rtoes -23.041509837750798
lfemur -26.581424832503764 1.827045862701893 -15.421071291370682
ltibia 44.95247377798258
lfoot -32.268760313007064 3.3533824675688892
ltoes -21.49447443837427
227
root 0 0 0 1.8452695362981006 -3.894904462793159 2.1776758655552193
lowerback 11.985830535421293 1.1654739213146477 -0.09724398822727998
upperback -4.45754984147391 1.465087072400105 -0.8561353103896455
thorax -11.566617028660204 0.6785037087286185 -1.13558510008919
lowerneck -6.238946916777366 1.7524874356127584 4.833226312379432
upperneck 18.17730515132887 3.285797465759863 -8.488589081559114
head 6.697892125768866 1.2225796782408351 -3.293208432065076
rclavicle -2.1493574098846665E-15 -1.1015137642794392E-15
rhumerus 23.26401338331315 17.848259380694962 -48.50383544136673
rradius 74.90404471466967
rwrist 25.810471277865354
rhand -34.819075610223166 -58.103388215635555
rfingers 7.12502
rthumb -7.96184778133521 -88.01383658240653
lclavicle -1.1143502090009306E-15 -8.402947910715402E-16
lhumerus 22.434668292304735 -14.544355407928778 45.76585764155157
lradius 71.33964720373909
lwrist -21.386573522166216
lhand -45.27234301270155 -69.02527741719527
lfingers 7.125020000000012
lthumb -18.046496587599066 -39.77704452380213
rfemur -24.525625984366695 -0.7887140495550717 18.59644163588813
rtibia 44.937295707485355
rfoot -33.012212604124194 -17.8744640235099
rtoes -23.040317851806456
lfemur -26.56644620963864 1.8227090256030984 -15.433650990357581
ltibia 44.90895507777063
lfoot -32.2926460810412 3.368298588130248
ltoes -21.489724751017857
228
root 0 0 0 1.8452945580374713 -3.89423694770049 2.179064104861317
lowerback 11.985655114926283 1.1651215476470762 -0.09866942446580962
upperback -4.457586705145161 1.4644150306505122 -0.8563258874096037
thorax -11.566527975553484 0.678219774956649 -1.134869050720627
lowerneck -6.238814230826238 1.7525652919976775 4.8331195880798274
upperneck 18.17727057585627 3.285924527295662 -8.488525429742701
head 6.697858091480403 1.2226407290834311 -3.2931712901061765
rclavicle -2.148178325786332E-15 -1.1011972011664598E-15
rhumerus 23.263759785116413 17.848176729728912 -48.50409417533226
rradius 74.903834930792
rwrist 25.810240938522718
rhand -34.818961994353586 -58.10292463731058
rfingers 7.12502
rthumb -7.961734615888602 -88.01331676623113
lclavicle -1.113057796758746E-15 -8.397954186574374E-16
lhumerus 22.43447367223756 -14.544167439744083 45.76588075300775
lradius 71.33943260346771
lwrist -21.38658942562371
lhand -45.27229508972286 -69.02518455990602
lfingers 7.125020000000012
lthumb -18.046449904437964 -39.77693369288613
rfemur -24.53370965084666 -0.7926486066195864 18.59021523117416
rtibia 44.95778394695633
rfoot -33.000350577499745 -17.873718339537646
rtoes -23.038907809700262
lfemur -26.54862661763473 1.8185305811560961 -15.446396098193835
ltibia 44.86834237653832
lfoot -32.31368255775027 3.380785665838731
ltoes -21.48600266469191
229
root 0 0 0 1.8452345351946065 -3.893067055121892 2.1805152903182674
lowerback 11.985357267669842 1.1645631740209992 -0.10034100419967329
upperback -4.45767182720838 1.4634437187409453 -0.8564204335604574
thorax -11.56641667722098 0.6777949626833212 -1.1338743623024137
lowerneck -6.238509489847218 1.7527518559692765 4.833093831692704
upperneck 18.177028649684207 3.2862128036395903 -8.488581292222264
head 6.697723341708581 1.2227737850568734 -3.2931666688598584
rclavicle -2.146848421118997E-15 -1.1011076108156584E-15
rhumerus 23.262827243475044 17.847199979341312 -48.50384704256932
rradius 74.90306961046466
rwrist 25.810584097923417
rhand -34.818819670957076 -58.10244277046848
rfingers 7.12502
rthumb -7.961591926548243 -88.01278230875243
lclavicle -1.1118292924860426E-15 -8.396141947902779E-16
lhumerus 22.43446742672556 -14.544350542258345 45.76601388002306
lradius 71.33945456301356
lwrist -21.386401360229826
lhand -45.27224271069918 -69.02476372143352
lfingers 7.125020000000012
lthumb -18.04639782666257 -39.776508939755416
rfemur -24.54266072546509 -0.7962133114274823 18.584134910236923
rtibia 44.97596128839785
rfoot -32.98869977853671 -17.873017247399467
rtoes -23.03720065452747
lfemur -26.52886130588932 1.814797623367555 -15.458658175772138
ltibia 44.83349576035062
lfoot -32.33123304600578 3.3899266571963675
ltoes -21.484131354284216
230
root 0 0 0 1.8450740923480686 -3.891521368667526 2.1819391216784343
lowerback 11.984978363962764 1.1638611554963996 -0.10211894143376132
upperback -4.4577982535718546 1.4622729822778704 -0.8564319492782696
thorax -11.566303697569055 0.6772742706179885 -1.132708430824243
lowerneck -6.23805365350922 1.7530219134779441 4.833150809709399
upperneck 18.176661091834383 3.286625688452988 -8.488755070240114
head 6.697518862215479 1.2229609990983286 -3.2931981073423033
rclavicle -2.145391549240413E-15 -1.1010430058144996E-15
rhumerus 23.261271176945364 17.845373517818942 -48.50308408000073
rradius 74.90179279148907
rwrist 25.81150548319242
rhand -34.818660819035635 -58.101998211482325
rfingers 7.12502
rthumb -7.961431027749956 -88.0122964484509
lclavicle -1.110645665512231E-15 -8.394655542360211E-16
lhumerus 22.43464632006065 -14.544868684404243 45.76623684407868
lradius 71.33970057337989
lwrist -21.386037577576303
lhand -45.27220111939477 -69.02410201131316
lfingers 7.125020000000012
lthumb -18.046355084889026 -39.7758500037189
rfemur -24.55204250694533 -0.7994546832975229 18.578305391993172
rtibia 44.99239910778861
rfoot -32.977230598766994 -17.872327717490755
rtoes -23.034945064005527
lfemur -26.50857468473644 1.8118245379121736 -15.469664747816886
ltibia 44.807031727002546
lfoot -32.34425858292017 3.395091346452527
ltoes -21.484198277649327
231
root 0 0 0 1.844820050664166 -3.8897831029030985 2.183233485824794
lowerback 11.984564948450416 1.1631013727771689 -0.1038426625793818
upperback -4.457949978142718 1.46103636055317 -0.8563801169119453
thorax -11.566202660044405 0.6767185506120258 -1.1315010447924574
lowerneck -6.237498885094809 1.7533426057438863 4.833278461497018
upperneck 18.17621514671943 3.2871118543830073 -8.489017133899477
head 6.69726981298622 1.2231798280261974 -3.2932587764206316
rclavicle -2.1440524335046398E-15 -1.1009713389083841E-15
rhumerus 23.259307032037633 17.842962731132616 -48.50193418516563
rradius 74.90018229916251
rwrist 25.81285484724497
rhand -34.81850194185825 -58.101627724479165
rfingers 7.12502
rthumb -7.961268920165542 -88.01189984494036
lclavicle -1.109665392444798E-15 -8.393193402209845E-16
lhumerus 22.434971392227652 -14.545624346422878 45.766510936017625
lradius 71.34011818015179
lwrist -21.385563174156964
lhand -45.27217652314538 -69.02331109350868
lfingers 7.125020000000012
lthumb -18.046328880620926 -39.775069538577526
rfemur -24.56115395204278 -0.8023744122618348 18.57292796617589
rtibia 45.00740036746197
rfoot -32.966173263351905 -17.871636298869866
rtoes -23.032085503819577
lfemur -26.48953655718436 1.809835173665853 -15.478712843515932
ltibia 44.79047635623333
lfoot -32.35230298358045 3.396274906312347
ltoes -21.485917241749853
